<svg width="87" height="80" viewBox="0 0 87 80" fill="none" xmlns="http://www.w3.org/2000/svg">
<path d="M11.7953 23.5982C10.9505 26.335 12.3636 29.2594 15.0327 30.2982C12.296 29.4534 9.37157 30.8665 8.33275 33.5356C9.17754 30.7989 7.76446 27.8745 5.09533 26.8356C7.83206 27.6804 10.7565 26.2673 11.7953 23.5982Z" fill="#D9D6FE"/>
<path d="M15.1029 69.2306C15.77 71.0196 17.706 71.9893 19.5382 71.4521C17.7492 72.1193 16.7795 74.0552 17.3166 75.8874C16.6495 74.0984 14.7136 73.1287 12.8813 73.6659C14.6704 72.9987 15.6401 71.0628 15.1029 69.2306Z" fill="#D9D6FE"/>
<path d="M76.0244 35.8584C75.8011 37.7547 77.0807 39.5013 78.9561 39.86C77.0598 39.6367 75.3132 40.9163 74.9545 42.7917C75.1778 40.8954 73.8982 39.1488 72.0228 38.7901C73.9191 39.0134 75.6657 37.7338 76.0244 35.8584Z" fill="#D9D6FE"/>
<path d="M2.83589 47.6933C2.54414 48.5998 3.00236 49.5778 3.88569 49.9338C2.97911 49.642 2.00117 50.1002 1.64517 50.9836C1.93692 50.077 1.4787 49.0991 0.595375 48.7431C1.50195 49.0348 2.4799 48.5766 2.83589 47.6933Z" fill="#D9D6FE"/>
<path d="M78.5288 57.7855C78.2371 58.6921 78.6953 59.6701 79.5786 60.0261C78.672 59.7343 77.6941 60.1925 77.3381 61.0759C77.6299 60.1693 77.1716 59.1913 76.2883 58.8353C77.1949 59.1271 78.1728 58.6689 78.5288 57.7855Z" fill="#D9D6FE"/>
<path d="M61.7082 61.9909C61.4164 62.8974 61.8746 63.8754 62.758 64.2314C61.8514 63.9396 60.8734 64.3979 60.5175 65.2812C60.8092 64.3746 60.351 63.3967 59.4677 63.0407C60.3742 63.3324 61.3522 62.8742 61.7082 61.9909Z" fill="#D9D6FE"/>
<path d="M85.2571 10.6876C84.9653 11.5942 85.4236 12.5722 86.3069 12.9282C85.4003 12.6364 84.4224 13.0946 84.0664 13.978C84.3581 13.0714 83.8999 12.0934 83.0166 11.7374C83.9232 12.0292 84.9011 11.571 85.2571 10.6876Z" fill="#D9D6FE"/>
<path d="M49.9339 20.7802C49.6422 21.6868 50.1004 22.6647 50.9837 23.0207C50.0771 22.7289 49.0992 23.1872 48.7432 24.0705C49.0349 23.1639 48.5767 22.186 47.6934 21.83C48.6 22.1217 49.5779 21.6635 49.9339 20.7802Z" fill="#D9D6FE"/>
<path d="M71.8596 25.8691L51.5705 76.7047C50.9856 78.1703 49.3223 78.8846 47.8567 78.2997L13.7523 64.6882C12.2867 64.1033 11.574 62.4407 12.1589 60.9751L32.448 10.1395C33.0329 8.67396 34.6945 7.95891 36.1601 8.54384L70.2645 22.1553C71.7301 22.7402 72.4445 24.4036 71.8596 25.8691Z" fill="#8D74D5"/>
<path d="M70.174 25.3832L34.0043 10.9475L13.8438 61.4609L50.0136 75.8966L70.174 25.3832Z" fill="#F7F7F7"/>
<path d="M50.0137 75.8964L13.8439 61.4607L13.5547 62.1854L49.7244 76.6212L50.0137 75.8964Z" fill="#7B69C9"/>
<path opacity="0.1" d="M60.984 22.8457C61.0979 22.4735 60.9095 22.0702 60.5421 21.9236L60.5817 21.9394C60.5817 21.9394 56.2233 19.1435 56.593 17.1346L58.5657 12.1918C59.184 10.6427 58.4291 8.88453 56.8798 8.2662C55.3307 7.64794 53.5736 8.4033 52.9552 9.95257L50.9825 14.8954C49.8667 16.6065 44.7807 15.6331 44.7807 15.6331L44.8212 15.6492C44.4529 15.5022 44.0387 15.665 43.8658 16.0137C43.8564 16.0323 43.8479 16.0513 43.8402 16.0706C43.6855 16.4581 43.8741 16.897 44.2615 17.0516L59.9824 23.326C60.3691 23.4803 60.8088 23.2922 60.9634 22.9046C60.9711 22.8853 60.978 22.8657 60.984 22.8457ZM56.3432 9.61067C57.2553 9.97471 57.6994 11.0086 57.3353 11.9207C56.9713 12.8328 55.9374 13.2769 55.0253 12.9128C54.1142 12.5492 53.6691 11.5149 54.0332 10.6028C54.3971 9.69081 55.4319 9.24697 56.3432 9.61067Z" fill="black"/>
<path d="M35.1975 27.8235L32.0211 26.5558C31.4108 26.3122 31.1124 25.6175 31.356 25.0072L32.6237 21.8307C32.8673 21.2204 33.562 20.9221 34.1724 21.1656L37.3488 22.4334C37.9591 22.677 38.2575 23.3717 38.0139 23.982L36.7461 27.1584C36.5025 27.7689 35.8078 28.0671 35.1975 27.8235ZM34.0825 21.3908C33.5962 21.1967 33.0427 21.4344 32.8486 21.9207L31.5809 25.0971C31.3868 25.5834 31.6245 26.1369 32.1108 26.331L35.2872 27.5988C35.7735 27.7929 36.327 27.5551 36.5211 27.0688L37.7889 23.8924C37.983 23.4061 37.7452 22.8526 37.2589 22.6585L34.0825 21.3908Z" fill="#E0E0E0"/>
<path d="M59.6721 34.1851L40.4777 26.5245C40.0918 26.3705 39.9039 25.9329 40.0579 25.547C40.2119 25.1611 40.6495 24.9732 41.0354 25.1272L60.2297 32.7879C60.6156 32.9419 60.8035 33.3795 60.6495 33.7654C60.4955 34.1512 60.0579 34.3392 59.6721 34.1851Z" fill="#E0E0E0"/>
<path d="M53.7302 33.9978L39.7258 28.4085C39.3399 28.2545 39.152 27.8169 39.306 27.431C39.46 27.0452 39.8976 26.8572 40.2835 27.0112L54.2879 32.6006C54.6737 32.7546 54.8617 33.1922 54.7077 33.578C54.5537 33.9639 54.1161 34.1518 53.7302 33.9978Z" fill="#E0E0E0"/>
<path d="M32.0158 35.7957L28.8394 34.5279C28.2902 34.3088 28.0227 33.686 28.2419 33.1368L29.5097 29.9604C29.7288 29.4112 30.3516 29.1437 30.9008 29.3629L34.0772 30.6306C34.6264 30.8498 34.8939 31.4726 34.6747 32.0218L33.4069 35.1982C33.1878 35.7474 32.565 36.0149 32.0158 35.7957Z" stroke="#CCC1E0" stroke-width="0.242381" stroke-miterlimit="10"/>
<path d="M56.4457 42.2699L37.2513 34.6092C36.8655 34.4552 36.6775 34.0176 36.8315 33.6317C36.9855 33.2459 37.4231 33.0579 37.809 33.2119L57.0034 40.8726C57.3892 41.0266 57.5772 41.4642 57.4231 41.8501C57.2691 42.2359 56.8316 42.4239 56.4457 42.2699Z" fill="#CCC1E0"/>
<path d="M44.1742 39.5561L36.4992 36.493C36.1134 36.339 35.9254 35.9014 36.0794 35.5155C36.2335 35.1297 36.671 34.9417 37.0569 35.0957L44.7318 38.1589C45.1177 38.3129 45.3056 38.7505 45.1516 39.1363C44.9976 39.5222 44.5601 39.7101 44.1742 39.5561Z" fill="#CCC1E0"/>
<path d="M28.7441 43.9929L25.5677 42.7252C24.9574 42.4816 24.659 41.7868 24.9026 41.1765L26.1704 37.9999C26.414 37.3896 27.1087 37.0912 27.719 37.3348L30.8955 38.6026C31.5058 38.8462 31.8042 39.5409 31.5606 40.1512L30.2928 43.3278C30.0493 43.9379 29.3545 44.2365 28.7441 43.9929ZM27.6293 37.5598C27.143 37.3657 26.5895 37.6034 26.3954 38.0895L25.1276 41.2661C24.9335 41.7525 25.1713 42.3058 25.6576 42.4999L28.8341 43.7676C29.3204 43.9617 29.8738 43.7242 30.0679 43.2379L31.3357 40.0612C31.5297 39.5751 31.292 39.0216 30.8057 38.8275L27.6293 37.5598Z" fill="#E0E0E0"/>
<path d="M53.2188 50.3546L34.0245 42.6939C33.6386 42.5399 33.4507 42.1023 33.6047 41.7164C33.7587 41.3306 34.1962 41.1426 34.5821 41.2967L53.7765 48.9573C54.1623 49.1113 54.3503 49.5489 54.1963 49.9348C54.0423 50.3205 53.6047 50.5086 53.2188 50.3546Z" fill="#E0E0E0"/>
<path d="M42.687 48.3353L33.2721 44.5777C32.8863 44.4237 32.6983 43.9861 32.8523 43.6002C33.0063 43.2144 33.4439 43.0264 33.8298 43.1804L43.2446 46.938C43.6305 47.092 43.8184 47.5296 43.6644 47.9155C43.5107 48.3012 43.0728 48.4893 42.687 48.3353Z" fill="#E0E0E0"/>
<path d="M25.5176 52.0776L22.3411 50.8099C21.7308 50.5663 21.4325 49.8716 21.676 49.2612L22.9439 46.0846C23.1874 45.4743 23.8822 45.176 24.4925 45.4195L27.6689 46.6873C28.2792 46.9309 28.5776 47.6256 28.334 48.2359L27.0662 51.4125C26.8227 52.0227 26.1279 52.3212 25.5176 52.0776ZM24.4027 45.6445C23.9164 45.4504 23.363 45.688 23.1689 46.1743L21.9011 49.3509C21.707 49.8372 21.9448 50.3905 22.4311 50.5846L25.6075 51.8523C26.0938 52.0464 26.6472 51.8089 26.8413 51.3226L28.1091 48.146C28.3032 47.6597 28.0654 47.1063 27.5791 46.9123L24.4027 45.6445Z" fill="#E0E0E0"/>
<path d="M49.9923 58.4391L30.7979 50.7784C30.412 50.6244 30.2241 50.1868 30.3781 49.8009C30.5321 49.4151 30.9697 49.2271 31.3555 49.3811L50.5499 57.0418C50.9358 57.1958 51.1237 57.6334 50.9697 58.0193C50.8158 58.405 50.3781 58.5931 49.9923 58.4391Z" fill="#E0E0E0"/>
<path d="M48.6642 60.0931L30.046 52.6624C29.6601 52.5084 29.4722 52.0708 29.6262 51.685C29.7802 51.2991 30.2178 51.1112 30.6037 51.2652L49.2221 58.696C49.6079 58.85 49.7959 59.2876 49.6418 59.6734C49.4878 60.0593 49.0501 60.2471 48.6642 60.0931Z" fill="#E0E0E0"/>
<path d="M22.2909 60.1622L19.1145 58.8944C18.5042 58.6508 18.2058 57.9561 18.4494 57.3458L19.7171 54.1694C19.9607 53.5591 20.6554 53.2607 21.2657 53.5043L24.4422 54.772C25.0525 55.0156 25.3509 55.7103 25.1073 56.3206L23.8395 59.4971C23.596 60.1072 22.9012 60.4058 22.2909 60.1622ZM21.176 53.7292C20.6897 53.5351 20.1362 53.7727 19.9421 54.259L18.6744 57.4354C18.4803 57.9217 18.7181 58.475 19.2044 58.6691L22.3808 59.9369C22.8671 60.131 23.4205 59.8934 23.6146 59.4071L24.8824 56.2307C25.0765 55.7444 24.8387 55.1911 24.3524 54.997L21.176 53.7292Z" fill="#E0E0E0"/>
<path d="M46.7656 66.5238L27.5712 58.8631C27.1853 58.7091 26.9974 58.2715 27.1514 57.8856C27.3054 57.4998 27.743 57.3118 28.1289 57.4658L47.3232 65.1265C47.7091 65.2805 47.897 65.7181 47.743 66.104C47.589 66.4898 47.1514 66.6778 46.7656 66.5238Z" fill="#E0E0E0"/>
<path d="M42.4684 66.9926L26.8193 60.7469C26.4334 60.5929 26.2455 60.1553 26.3995 59.7694C26.5535 59.3836 26.991 59.1956 27.3769 59.3496L43.0261 65.5954C43.4119 65.7494 43.5999 66.187 43.4459 66.5728C43.292 66.9588 42.8543 67.1466 42.4684 66.9926Z" fill="#E0E0E0"/>
<path d="M61.0288 22.7331C61.1427 22.3609 60.9543 21.9576 60.5869 21.811L60.6265 21.8268C60.6265 21.8268 56.2681 19.0308 56.6378 17.0219L58.6105 12.0793C59.2287 10.5302 58.4738 8.77206 56.9245 8.15373C55.3754 7.53546 53.6183 8.29082 53 9.84009L51.0272 14.7829C49.9114 16.4942 44.8254 15.5206 44.8254 15.5206L44.8659 15.5367C44.4977 15.3898 44.0834 15.5524 43.9106 15.9012C43.9012 15.9198 43.8924 15.9387 43.8847 15.9582C43.73 16.3458 43.9186 16.7846 44.306 16.9392L60.0269 23.2136C60.4134 23.3679 60.8533 23.1797 61.0079 22.7923C61.0161 22.7728 61.023 22.7531 61.0288 22.7331ZM56.3881 9.49826C57.3002 9.8623 57.7443 10.8962 57.3802 11.8083C57.0162 12.7204 55.9823 13.1645 55.0702 12.8004C54.1591 12.4368 53.714 11.4025 54.0781 10.4904C54.4421 9.57823 55.4768 9.13455 56.3881 9.49826Z" fill="#FFB100"/>
<path d="M61.0085 22.7921C60.8538 23.1796 60.414 23.3677 60.0274 23.2134L44.3065 16.939C43.919 16.7843 43.7306 16.3454 43.8852 15.958C43.8929 15.9387 43.9015 15.9197 43.9111 15.901L61.0293 22.733C61.023 22.7531 61.0162 22.7728 61.0085 22.7921Z" fill="#F5973A"/>
</svg>
